<?xml version="1.0" standalone="no"?>
<!DOCTYPE svg PUBLIC "-//W3C//DTD SVG 20010904//EN"
 "http://www.w3.org/TR/2001/REC-SVG-20010904/DTD/svg10.dtd">
<svg version="1.0" xmlns="http://www.w3.org/2000/svg"
 width="971.000000pt" height="1280.000000pt" viewBox="0 0 971.000000 1280.000000"
 preserveAspectRatio="xMidYMid meet">
<metadata>
Created by potrace 1.15, written by Peter Selinger 2001-2017
</metadata>
<g transform="translate(0.000000,1280.000000) scale(0.100000,-0.100000)"
fill="#000000" stroke="none">
<path d="M3095 12788 c-11 -6 -48 -37 -83 -70 -34 -32 -69 -58 -77 -58 -23 0
-63 -62 -75 -115 -22 -106 -9 -95 -111 -95 -82 0 -92 -2 -114 -25 -25 -24 -30
-43 -26 -103 2 -21 -3 -34 -12 -38 -8 -3 -20 -18 -27 -33 -9 -23 -8 -36 5 -66
8 -21 12 -42 8 -46 -5 -3 -31 -14 -60 -23 -60 -20 -103 -58 -103 -93 0 -15 18
-43 46 -73 l46 -49 -42 -11 c-58 -16 -71 -46 -42 -106 32 -64 29 -78 -23 -109
-52 -30 -77 -64 -75 -97 4 -42 0 -48 -29 -48 -28 0 -45 -16 -88 -79 -1 -2 -20
-5 -42 -6 -77 -4 -98 -21 -148 -117 -12 -23 -11 -34 7 -87 11 -33 20 -67 20
-75 0 -25 -67 -68 -132 -85 -84 -22 -102 -48 -102 -142 l1 -71 58 -58 c52 -52
57 -61 50 -87 -4 -15 -9 -38 -10 -51 -2 -13 -26 -48 -54 -77 -28 -30 -51 -63
-51 -74 0 -12 16 -38 35 -60 19 -21 35 -43 35 -48 0 -5 -13 -27 -30 -49 -37
-49 -37 -69 1 -155 16 -38 50 -120 74 -182 24 -62 68 -167 99 -234 97 -211
125 -342 151 -685 9 -117 21 -229 26 -249 11 -46 42 -85 81 -105 45 -23 136
-21 186 5 23 12 44 21 47 21 11 0 4 -168 -10 -232 -21 -101 -47 -153 -92 -182
-60 -40 -185 -87 -468 -176 -515 -162 -652 -232 -876 -448 -128 -123 -191
-211 -265 -366 -117 -249 -150 -440 -165 -976 -11 -355 -10 -401 15 -870 40
-765 94 -1465 127 -1660 35 -210 133 -359 378 -575 103 -91 144 -120 347 -252
61 -39 116 -79 124 -88 12 -14 8 -29 -34 -113 -101 -205 -180 -324 -230 -343
-188 -74 -324 -189 -428 -360 -98 -161 -134 -357 -109 -578 7 -57 33 -201 57
-320 25 -119 48 -233 51 -253 l6 -38 -109 0 c-60 0 -241 7 -402 16 -283 15
-294 15 -314 -3 -31 -28 -48 -68 -48 -115 0 -57 19 -82 90 -118 32 -16 61 -34
65 -39 7 -12 -13 -99 -30 -126 -7 -12 -45 -34 -84 -49 -110 -43 -128 -79 -96
-193 8 -29 22 -78 30 -108 13 -44 14 -59 4 -77 -7 -13 -16 -42 -19 -65 l-7
-41 46 -6 c126 -15 2635 -25 5932 -25 3600 0 3677 1 3694 19 24 27 12 66 -26
86 -51 26 -119 94 -119 119 0 12 11 54 25 93 35 100 33 144 -5 174 -96 73 -94
70 -98 152 -2 42 0 76 4 76 48 0 131 23 151 41 37 36 30 70 -24 118 -26 22
-51 41 -55 41 -5 0 -8 -11 -8 -25 0 -32 -5 -31 -47 5 -38 34 -36 33 -152 20
-75 -8 -87 -7 -123 11 -33 17 -39 24 -33 42 63 213 69 249 69 417 0 94 -5 176
-11 190 l-10 25 -16 -38 -17 -38 -40 32 c-57 46 -66 64 -85 165 -9 49 -25 115
-35 147 -24 69 -28 187 -6 187 20 0 70 -82 124 -206 41 -96 47 -105 50 -77 2
18 -4 61 -13 95 -36 140 -104 245 -217 333 -82 64 -258 156 -353 184 -274 80
-392 109 -632 156 -149 30 -284 53 -299 52 -24 -2 -35 8 -82 76 -63 91 -116
133 -178 143 -29 4 -63 20 -95 44 -47 35 -55 37 -147 44 -53 4 -117 14 -142
22 -31 11 -62 14 -99 10 l-54 -7 9 128 c13 182 10 569 -4 619 -10 34 -9 56 4
119 26 127 18 178 -46 277 -30 45 -82 130 -117 188 -37 62 -83 125 -114 153
-51 48 -52 50 -41 81 7 18 12 39 12 47 0 30 20 38 51 21 22 -13 31 -14 40 -5
14 14 16 6 -51 193 -23 63 -52 154 -65 202 -14 51 -36 104 -54 128 -20 27 -36
68 -46 118 -45 209 -182 702 -200 720 -9 9 -5 -32 10 -111 8 -43 15 -101 15
-129 0 -34 6 -58 20 -75 11 -14 22 -41 26 -62 3 -20 24 -101 45 -181 46 -172
47 -183 17 -178 -16 2 -24 11 -26 28 -2 14 -33 111 -68 215 -44 131 -82 275
-124 465 -59 270 -73 324 -145 585 -45 164 -57 240 -49 310 12 102 20 84 114
-265 60 -220 80 -275 80 -214 0 43 -40 193 -125 468 -94 306 -160 466 -224
538 -15 18 -42 60 -59 93 -35 70 -102 141 -211 224 -42 32 -92 76 -109 97 -18
22 -40 47 -50 57 -30 32 -130 88 -210 117 -42 16 -126 47 -187 70 -60 23 -141
51 -180 62 -129 36 -160 46 -218 67 -48 18 -64 20 -97 11 -50 -14 -62 -33 -44
-77 18 -41 6 -42 -32 -2 -34 36 -119 97 -220 158 -66 41 -75 51 -147 165 -93
148 -115 197 -123 273 -11 102 18 162 104 221 32 21 39 8 47 -92 3 -45 11 -96
16 -113 14 -43 53 -73 96 -73 96 0 120 64 143 375 13 189 21 227 76 375 54
146 70 239 83 490 6 107 17 222 25 255 7 33 19 110 26 170 7 61 16 116 20 124
4 7 29 25 56 40 31 17 52 36 58 54 9 24 5 35 -33 87 -56 81 -54 105 14 142 51
27 95 78 95 110 0 9 -25 41 -56 71 -42 41 -55 59 -50 73 3 11 33 53 66 94 70
87 75 115 30 153 -16 14 -30 31 -30 38 0 7 12 42 26 77 23 58 25 69 14 111
-12 48 -34 81 -55 81 -7 0 -20 9 -30 20 -30 33 -93 51 -170 48 l-69 -3 -12 51
c-13 59 -38 101 -66 110 -11 3 -40 3 -64 -1 -43 -6 -45 -5 -59 28 -19 45 -38
59 -81 59 -27 0 -44 -8 -69 -32 -18 -18 -38 -30 -43 -26 -5 3 -22 40 -37 83
-23 67 -37 87 -95 146 l-68 68 30 70 c55 132 25 183 -96 161 -34 -7 -64 -8
-69 -3 -5 5 -2 29 7 55 19 56 20 100 4 113 -33 27 -84 34 -127 18 -70 -24 -76
-22 -94 44 -20 70 -61 111 -111 111 -27 0 -39 9 -81 62 -86 106 -171 149 -230
116z m2755 -5589 c0 -6 -4 -7 -10 -4 -5 3 -10 11 -10 16 0 6 5 7 10 4 6 -3 10
-11 10 -16z m-100 -293 c0 -14 -4 -27 -9 -30 -10 -7 -20 23 -14 42 8 21 23 13
23 -12z m-421 -12 c33 -42 44 -91 38 -168 -7 -88 -74 -554 -82 -567 -10 -15
-51 -10 -67 9 -13 14 -14 26 -5 74 7 41 7 73 -2 120 -28 149 -43 268 -37 292
8 33 29 33 46 1 16 -29 30 -33 30 -7 0 9 9 30 19 45 15 24 17 34 8 58 -14 37
1 65 32 61 26 -4 26 8 1 58 -11 22 -20 42 -20 45 0 13 20 3 39 -21z m-1468
-314 c10 -6 19 -17 19 -25 0 -7 5 -17 10 -20 18 -11 80 16 97 41 12 20 24 24
62 24 25 0 51 -4 56 -8 30 -22 105 -149 105 -178 0 -39 -155 -165 -182 -148
-14 9 -58 102 -58 122 0 10 5 23 11 29 9 9 8 19 -5 39 -15 21 -23 25 -47 20
-21 -4 -49 4 -101 29 -40 19 -78 35 -84 35 -18 0 -37 28 -31 44 5 12 20 14 67
11 34 -3 70 -10 81 -15z m-2091 -37 c0 -5 -5 -15 -10 -23 -8 -12 -10 -11 -10
8 0 12 5 22 10 22 6 0 10 -3 10 -7z m0 -140 c0 -13 -4 -23 -10 -23 -5 0 -10
17 -10 38 0 27 3 33 10 22 5 -8 10 -25 10 -37z m-23 -930 c-4 -368 -10 -679
-13 -691 -18 -64 -24 35 -23 410 0 223 -3 457 -7 520 -4 81 -2 145 10 228 9
63 16 134 16 157 0 26 5 43 12 43 8 0 10 -164 5 -667z m82 -702 c1 -74 -5 -61
-13 24 -4 46 -3 63 3 50 5 -11 10 -44 10 -74z m2833 -299 c-2 -114 -8 -211
-12 -216 -13 -13 -33 70 -36 144 -2 36 -6 113 -10 172 -7 107 -6 108 17 117
15 5 28 5 34 -1 6 -6 9 -87 7 -216z m-2932 148 c0 -27 -4 -50 -10 -50 -11 0
-13 42 -4 78 10 35 14 26 14 -28z m237 -132 c-2 -29 -3 -8 -3 47 0 55 1 79 3
53 2 -26 2 -71 0 -100z m4816 -606 c20 -22 77 -146 77 -167 0 -11 -7 -15 -22
-13 -26 4 -96 126 -97 171 -1 31 18 36 42 9z m-883 -60 c75 -37 196 -160 303
-309 82 -114 120 -154 130 -136 3 5 8 28 12 53 9 57 29 80 71 80 23 0 41 -9
63 -30 58 -59 123 -235 92 -254 -11 -7 -114 22 -180 50 -18 8 -70 43 -115 78
-44 34 -130 96 -189 136 -79 53 -120 88 -150 129 -73 100 -107 131 -107 97 0
-38 -46 -30 -78 13 -33 45 -32 56 6 52 30 -2 31 -1 24 21 -5 13 -7 31 -4 42 5
24 45 17 122 -22z m654 -275 c11 -15 17 -29 13 -33 -7 -8 -57 41 -57 56 0 18
22 6 44 -23z m-2744 -1027 c72 -77 163 -450 131 -541 -9 -28 -8 -43 10 -98 20
-60 21 -78 16 -231 -7 -168 -15 -221 -34 -227 -18 -6 -24 26 -34 157 -5 69
-13 144 -18 168 -6 31 -4 65 6 118 l15 74 -40 107 c-84 223 -140 449 -122 483
15 28 38 25 70 -10z m1444 -41 c35 -41 35 -91 1 -113 -13 -9 -30 -16 -36 -16
-7 0 -32 -9 -56 -21 -77 -37 -86 -15 -40 94 14 35 30 53 56 67 47 25 45 25 75
-11z m-1134 -440 c0 -22 -51 -49 -94 -49 -35 0 -39 14 -13 37 26 25 43 31 80
32 21 1 27 -4 27 -20z m-445 -245 c41 -63 40 -200 -1 -192 -47 9 -80 125 -54
188 15 37 32 38 55 4z m-245 -211 c24 -78 25 -106 4 -123 -20 -18 -37 0 -58
63 -16 49 -22 148 -9 161 13 13 42 -34 63 -101z m524 -247 c8 -19 19 -59 26
-90 10 -47 9 -60 -6 -91 -35 -74 -74 -29 -74 84 0 127 24 169 54 97z m-483
-12 c8 -10 13 -44 14 -92 0 -70 -2 -77 -20 -77 -24 0 -65 74 -65 118 0 59 40
88 71 51z m2700 -555 c-39 -32 -71 10 -35 46 16 15 18 15 38 -5 l21 -21 -24
-20z m189 10 c0 -26 -3 -30 -22 -27 -17 2 -24 11 -26 31 -3 23 0 27 22 27 22
0 26 -4 26 -31z m-786 15 c20 -8 21 -50 2 -57 -19 -7 -50 28 -43 48 7 16 16
18 41 9z m-1006 -37 c3 -23 0 -27 -22 -27 -28 0 -37 17 -24 43 14 27 42 17 46
-16z m1226 12 c18 -27 10 -51 -17 -47 -25 4 -42 30 -34 52 9 22 33 20 51 -5z
m3618 -304 c5 -30 -24 -25 -40 8 -17 36 -6 55 18 31 10 -11 20 -28 22 -39z"/>
</g>
</svg>
