<svg width="512" height="512" viewBox="0 0 512 512" fill="none" xmlns="http://www.w3.org/2000/svg" role="img" aria-label="ViharaOS">
  <defs>
    <linearGradient id="vo-saffron" x1="0" y1="0" x2="512" y2="512" gradientUnits="userSpaceOnUse">
      <stop stop-color="#FF9C33"/>
      <stop offset="0.55" stop-color="#F05D00"/>
      <stop offset="1" stop-color="#C74302"/>
    </linearGradient>
    <linearGradient id="vo-leaf" x1="256" y1="96" x2="256" y2="392" gradientUnits="userSpaceOnUse">
      <stop stop-color="#FFF8ED"/>
      <stop offset="1" stop-color="#FFDBA3"/>
    </linearGradient>
  </defs>
  <!-- rounded app tile -->
  <rect x="32" y="32" width="448" height="448" rx="104" fill="url(#vo-saffron)"/>
  <!-- Bodhi leaf (enlightenment) -->
  <path d="M256 96
           C 196 150, 150 206, 150 276
           C 150 338, 198 388, 256 392
           C 314 388, 362 338, 362 276
           C 362 206, 316 150, 256 96 Z"
        fill="url(#vo-leaf)" opacity="0.96"/>
  <!-- leaf central vein + radiating veins -->
  <g stroke="#F05D00" stroke-width="9" stroke-linecap="round" fill="none" opacity="0.85">
    <path d="M256 132 L256 372"/>
    <path d="M256 196 C 226 210, 206 232, 196 262"/>
    <path d="M256 196 C 286 210, 306 232, 316 262"/>
    <path d="M256 252 C 232 264, 216 284, 210 312"/>
    <path d="M256 252 C 280 264, 296 284, 302 312"/>
  </g>
  <!-- leaf drip tip -->
  <path d="M256 392 C 252 414, 250 428, 256 446 C 262 428, 260 414, 256 392 Z" fill="url(#vo-leaf)"/>
  <!-- subtle dharma-wheel hub -->
  <circle cx="256" cy="244" r="20" fill="#C74302" opacity="0.9"/>
  <circle cx="256" cy="244" r="8" fill="#FFF8ED"/>
</svg>
